<mxfile host="app.diagrams.net" modified="2023-03-10T02:15:38.703Z" agent="5.0 (Windows NT 10.0; Win64; x64) AppleWebKit/537.36 (KHTML, like Gecko) Chrome/110.0.0.0 Safari/537.36" etag="m8tyOFkHJauigLN4_PSq" version="21.0.4" type="github">
  <diagram name="PÃ¡gina-1" id="dDxZZ1QTz9MJK-hzdLoZ">
    <mxGraphModel dx="1028" dy="532" grid="1" gridSize="10" guides="1" tooltips="1" connect="1" arrows="1" fold="1" page="1" pageScale="1" pageWidth="827" pageHeight="1169" math="0" shadow="0">
      <root>
        <mxCell id="0" />
        <mxCell id="1" parent="0" />
        <mxCell id="8u683kFg1VxdrmvNKoR9-1" value="&lt;b&gt;CONTROL DE&amp;nbsp; LABORATORIOS DE UN LABORATORIO CLINICO&lt;/b&gt;" style="ellipse;whiteSpace=wrap;html=1;aspect=fixed;" parent="1" vertex="1">
          <mxGeometry x="390" y="110" width="130" height="130" as="geometry" />
        </mxCell>
        <mxCell id="8u683kFg1VxdrmvNKoR9-2" value="ADMINITRADOR" style="rounded=0;whiteSpace=wrap;html=1;" parent="1" vertex="1">
          <mxGeometry x="50" y="120" width="120" height="60" as="geometry" />
        </mxCell>
        <mxCell id="8u683kFg1VxdrmvNKoR9-11" value="" style="endArrow=classic;html=1;rounded=0;" parent="1" source="8u683kFg1VxdrmvNKoR9-1" target="8u683kFg1VxdrmvNKoR9-2" edge="1">
          <mxGeometry width="50" height="50" relative="1" as="geometry">
            <mxPoint x="390" y="150" as="sourcePoint" />
            <mxPoint x="440" y="100" as="targetPoint" />
            <Array as="points">
              <mxPoint x="360" y="110" />
              <mxPoint x="310" y="90" />
              <mxPoint x="230" y="100" />
            </Array>
          </mxGeometry>
        </mxCell>
        <mxCell id="OwIRxyqm4TRpbunsfLRD-8" value="COSTO" style="edgeLabel;html=1;align=center;verticalAlign=middle;resizable=0;points=[];" vertex="1" connectable="0" parent="8u683kFg1VxdrmvNKoR9-11">
          <mxGeometry x="-0.0367" y="1" relative="1" as="geometry">
            <mxPoint as="offset" />
          </mxGeometry>
        </mxCell>
        <mxCell id="8u683kFg1VxdrmvNKoR9-25" value="" style="endArrow=classic;html=1;rounded=0;" parent="1" source="8u683kFg1VxdrmvNKoR9-2" target="8u683kFg1VxdrmvNKoR9-1" edge="1">
          <mxGeometry width="50" height="50" relative="1" as="geometry">
            <mxPoint x="440" y="150" as="sourcePoint" />
            <mxPoint x="480" y="270" as="targetPoint" />
            <Array as="points">
              <mxPoint x="220" y="220" />
              <mxPoint x="300" y="240" />
            </Array>
          </mxGeometry>
        </mxCell>
        <mxCell id="8u683kFg1VxdrmvNKoR9-27" value="REGISTRA LABORATORIO" style="edgeLabel;html=1;align=center;verticalAlign=middle;resizable=0;points=[];" parent="8u683kFg1VxdrmvNKoR9-25" vertex="1" connectable="0">
          <mxGeometry x="0.101" y="-2" relative="1" as="geometry">
            <mxPoint as="offset" />
          </mxGeometry>
        </mxCell>
        <mxCell id="OwIRxyqm4TRpbunsfLRD-9" value="LABORATORIO" style="rounded=0;whiteSpace=wrap;html=1;" vertex="1" parent="1">
          <mxGeometry x="600" y="330" width="120" height="60" as="geometry" />
        </mxCell>
        <mxCell id="OwIRxyqm4TRpbunsfLRD-10" value="" style="endArrow=classic;html=1;rounded=0;" edge="1" parent="1" source="OwIRxyqm4TRpbunsfLRD-9" target="8u683kFg1VxdrmvNKoR9-1">
          <mxGeometry width="50" height="50" relative="1" as="geometry">
            <mxPoint x="440" y="420" as="sourcePoint" />
            <mxPoint x="490" y="370" as="targetPoint" />
            <Array as="points">
              <mxPoint x="690" y="240" />
              <mxPoint x="660" y="175" />
              <mxPoint x="600" y="150" />
            </Array>
          </mxGeometry>
        </mxCell>
        <mxCell id="OwIRxyqm4TRpbunsfLRD-12" value="GANANCIAS" style="edgeLabel;html=1;align=center;verticalAlign=middle;resizable=0;points=[];" vertex="1" connectable="0" parent="OwIRxyqm4TRpbunsfLRD-10">
          <mxGeometry x="0.1618" y="-1" relative="1" as="geometry">
            <mxPoint as="offset" />
          </mxGeometry>
        </mxCell>
        <mxCell id="OwIRxyqm4TRpbunsfLRD-11" value="" style="endArrow=classic;html=1;rounded=0;entryX=0;entryY=0.5;entryDx=0;entryDy=0;" edge="1" parent="1" source="8u683kFg1VxdrmvNKoR9-1" target="OwIRxyqm4TRpbunsfLRD-9">
          <mxGeometry width="50" height="50" relative="1" as="geometry">
            <mxPoint x="500" y="400" as="sourcePoint" />
            <mxPoint x="550" y="350" as="targetPoint" />
            <Array as="points">
              <mxPoint x="430" y="300" />
              <mxPoint x="460" y="350" />
              <mxPoint x="530" y="390" />
            </Array>
          </mxGeometry>
        </mxCell>
      </root>
    </mxGraphModel>
  </diagram>
</mxfile>
